<svg width="68" height="62" viewBox="0 0 68 62" fill="none" xmlns="http://www.w3.org/2000/svg">
<circle cx="50" cy="19" r="18" fill="#FD8D0B"/>
<path fill-rule="evenodd" clip-rule="evenodd" d="M13.8249 14.1475C12.0156 16.1398 13.0676 17.8872 19.4328 23.4637L24.7548 28.1276L21.7248 29.8396C18.7872 31.4985 18.5511 31.5039 14.0337 29.9979C10.2328 28.7307 9.14619 28.6511 8.14314 29.5681C6.29927 31.2527 6.63496 32.7525 9.52283 35.7326C11.9907 38.2794 12.483 38.4236 18.5575 38.3891L24.9821 38.352L39.8391 29.2559C52.9614 21.222 54.7266 19.8787 54.9547 17.7475C55.2743 14.7709 53.8818 12.7892 51.4717 12.7892C50.4695 12.7892 46.7576 14.5799 43.2233 16.7686C39.6889 18.9573 36.4461 20.748 36.0172 20.748C35.5892 20.748 31.4855 19.2049 26.8983 17.3195C15.1813 12.5036 15.293 12.531 13.8249 14.1475ZM26.0856 19.5091L36.2252 23.576L43.4987 19.349C50.4992 15.2812 54.0472 14.587 53.0377 17.484C52.8032 18.1578 45.9554 22.7492 37.821 27.6872C23.7976 36.1995 22.7897 36.6638 18.3848 36.6337C14.6874 36.6081 13.2531 36.1651 11.3611 34.4619C8.08452 31.5136 9.15743 30.9335 14.473 32.7781C18.9373 34.3283 18.9807 34.3257 22.3737 32.2847C26.0028 30.1013 28.3278 28.0586 27.7447 27.5642C23.5454 24.0005 14.9436 16.1133 14.9436 15.8277C14.9436 15.1096 15.9298 15.4359 26.0856 19.5091Z" fill="#344848"/>
<path fill-rule="evenodd" clip-rule="evenodd" d="M11.7256 1.67835C7.55321 3.14145 1.96942 9.77613 0.705121 14.7718C-1.64004 24.0422 1.94096 34.9681 10.3095 44.0783C14.5041 48.6444 30.2371 61.7842 31.4927 61.7702C32.8068 61.7553 48.5176 48.696 52.6497 44.1833C64.3131 31.446 66.3301 16.2235 57.6255 6.63292C50.8438 -0.840058 40.9824 -1.51035 34.2387 5.04207L31.4927 7.71012L28.7466 5.04207C24.3655 0.784922 17.9096 -0.491786 11.7256 1.67835ZM24.0445 5.68874C25.818 6.58042 28.2114 8.63855 29.3626 10.2635L31.4555 13.2168L33.8513 10.0054C40.1688 1.53835 51.8606 2.40028 57.6563 11.7616C59.195 14.2459 59.5619 15.947 59.5619 20.5909C59.5619 28.3684 56.7644 34.92 50.6272 41.5162C46.2326 46.2406 34.7218 55.8872 32.2051 56.9565C30.7028 57.5945 17.5767 47.3195 11.8861 41.0515C7.15076 35.8353 3.73343 28.4682 3.20051 22.3288C2.07379 9.35522 13.3805 0.329016 24.0445 5.68874Z" fill="#344848"/>
</svg>
