<svg width="74" height="75" viewBox="0 0 74 75" fill="none" xmlns="http://www.w3.org/2000/svg">
<circle cx="42" cy="42" r="18" fill="#FFCA00"/>
<path d="M1.01921 71.6426H14.7134C15.2537 71.6426 15.6918 71.2045 15.6918 70.6642V68.9038H16.6548C20.1799 72.2321 24.7726 74.0598 29.6334 74.0598H39.4834C41.6857 74.0598 43.574 72.427 43.7824 70.3432C43.8794 69.3748 43.6338 68.4079 43.1012 67.6126C44.8314 67.195 46.1862 65.7657 46.3606 64.0187C46.4571 63.0508 46.211 62.0839 45.6784 61.2886C47.4082 60.8715 48.763 59.4422 48.9384 57.6961C49.0549 56.5272 48.6728 55.3601 47.8898 54.495C47.7651 54.3574 47.6322 54.2294 47.4923 54.1109C47.6322 53.9924 47.7651 53.8644 47.8898 53.7268C48.6728 52.8617 49.0549 51.6946 48.9384 50.5252C48.7291 48.4419 46.8402 46.8095 44.6384 46.8095H29.3821C30.8783 42.7164 29.9554 36.9375 29.2001 33.6236C28.8394 32.0438 27.4565 30.9403 25.8365 30.9403C24.2013 30.9403 22.7796 32.1035 22.4562 33.7062L21.0847 40.4831C20.4288 43.7259 19.0195 46.8272 17.0088 49.4532L16.5665 50.0312H15.6918V48.4318C15.6918 47.8915 15.2537 47.4534 14.7134 47.4534H4.96704C4.49269 47.4534 4.08663 47.7936 4.00399 48.2608L0.0561625 70.4932C0.00548404 70.7779 0.0833425 71.0707 0.269216 71.2924C0.455011 71.5145 0.729709 71.6426 1.01921 71.6426ZM15.6918 51.9879H17.0494C17.3542 51.9879 17.6413 51.846 17.8261 51.6043L18.5624 50.6427C20.7527 47.7821 22.288 44.4032 23.0022 40.871L24.3742 34.0937C24.5138 33.4005 25.129 32.897 25.8365 32.897C26.5373 32.897 27.1359 33.3747 27.2921 34.0588C27.9256 36.8377 29.1657 43.6886 27.0045 47.2839C26.8225 47.5858 26.8177 47.9627 26.9911 48.2694C27.165 48.5766 27.4904 48.7662 27.8429 48.7662H44.6384C45.8475 48.7662 46.8813 49.6247 46.9912 50.7205C47.0542 51.3493 46.8579 51.9507 46.4389 52.4141C46.0257 52.8707 45.4353 53.1326 44.8195 53.1326C44.2792 53.1326 43.8411 53.5706 43.8411 54.1109C43.8411 54.6512 44.2792 55.0893 44.8195 55.0893C45.4353 55.0893 46.0257 55.3511 46.4389 55.8077C46.8579 56.2711 47.0542 56.8726 46.9912 57.5008C46.8813 58.5971 45.8475 59.4555 44.6384 59.4555H42.2413C41.701 59.4555 41.2629 59.8936 41.2629 60.4339C41.2629 60.9743 41.701 61.4123 42.2413 61.4123C42.8565 61.4123 43.447 61.674 43.8603 62.1312C44.2796 62.5946 44.476 63.196 44.4134 63.8248C44.304 64.9206 43.2712 65.7791 42.0616 65.7791H39.6635C39.1232 65.7791 38.6852 66.2172 38.6852 66.7575C38.6852 67.2977 39.1232 67.7358 39.6635 67.7358C40.2798 67.7358 40.8702 67.998 41.2839 68.4552C41.7024 68.9182 41.8983 69.5191 41.8352 70.1478C41.7258 71.2441 40.6925 72.1031 39.4834 72.1031H29.6334C25.1543 72.1031 20.929 70.3719 17.7359 67.2285C17.5529 67.0479 17.3064 66.9471 17.0494 66.9471H15.6918V51.9879ZM5.78683 49.4102H13.7351V51.0095V67.9254V69.6859H2.18677L5.78683 49.4102Z" fill="#344848"/>
<g clip-path="url(#clip0_75_236)">
<path d="M44.2399 3.95004C47.8299 2.40004 50.7899 0.300039 53.9099 0.0300385C56.8099 -0.219961 59.9099 1.48004 63.3899 2.47004L60.6099 9.93005C63.9299 9.93005 67.7399 7.85005 69.8599 9.93005C70.1099 10.18 69.8599 10.64 69.8599 10.99H64.9399C67.3299 12.1 69.6799 11.9001 70.0099 13.3401C70.1399 13.9201 69.2499 14.26 68.8799 14.72L64.8799 13.3C67.3099 16.43 70.3099 19.24 72.0099 22.68C76.0099 30.74 72.2799 37.74 63.4399 38.68C57.7716 39.3102 52.0487 39.27 46.3899 38.5601C38.5299 37.5601 34.9999 31.19 38.1499 23.72C39.6195 20.1185 42.0687 17.0007 45.2199 14.72C49.4999 11.92 48.8999 9.72004 46.1599 6.72004C45.4737 5.82958 44.8329 4.90507 44.2399 3.95004ZM55.6099 37.33C58.4999 37.13 61.0999 36.9601 63.6999 36.7501C64.3481 36.6945 64.9904 36.5841 65.6199 36.42C70.4699 35.16 72.6699 31.96 72.0999 27.01C71.9176 25.1374 71.3555 23.3215 70.4477 21.6735C69.54 20.0254 68.3058 18.5797 66.8205 17.4248C65.3351 16.2699 63.6299 15.4299 61.809 14.9563C59.9881 14.4826 58.0897 14.3852 56.2299 14.67C55.2673 14.795 54.2925 14.795 53.3299 14.67C44.8399 13.67 36.8399 23.14 39.9899 31.13C40.9099 33.47 44.1099 35.47 46.7099 36.42C49.5399 37.48 52.8499 37.11 55.6099 37.33ZM59.1899 7.41004C56.2699 8.76004 46.1899 4.58004 50.6599 9.12004C51.2799 9.76004 52.6599 12.67 54.1499 12.97C57.4299 13.65 60.0599 12.48 59.2299 7.41004H59.1899ZM48.2399 3.32005C47.7599 3.83005 47.4999 5.48004 48.1899 5.41004C53.0599 4.90004 59.3499 7.07005 60.0699 4.85005C60.3299 4.05005 60.5199 2.85004 59.8799 2.36004C56.9599 -0.13996 50.9499 0.480047 48.2799 3.32005H48.2399Z" fill="#344848"/>
</g>
<path d="M53.7841 33C53.5245 33 53.3233 32.9331 53.1805 32.7992C53.0378 32.6531 52.9664 32.4522 52.9664 32.1966V30.1699H51.6619C51.4413 30.1699 51.2726 30.1213 51.1558 30.0239C51.0519 29.9265 51 29.7926 51 29.6222C51 29.4518 51.0519 29.3179 51.1558 29.2205C51.2726 29.1231 51.4413 29.0744 51.6619 29.0744H52.9664V27.3764H51.6619C51.4413 27.3764 51.2726 27.3277 51.1558 27.2303C51.0519 27.133 51 26.9991 51 26.8287C51 26.6582 51.0519 26.5243 51.1558 26.427C51.2726 26.3296 51.4413 26.2809 51.6619 26.2809H52.9664V20.7669C52.9664 20.5112 53.0378 20.3226 53.1805 20.2008C53.3233 20.0669 53.5245 20 53.7841 20H57.4442C58.4047 20 59.2224 20.1522 59.8973 20.4565C60.5853 20.7486 61.1044 21.1746 61.4549 21.7346C61.8183 22.2945 62 22.964 62 23.743C62 24.4855 61.8183 25.1306 61.4549 25.6784C61.0914 26.214 60.5788 26.6339 59.9168 26.9382C59.2549 27.2303 58.4761 27.3764 57.5805 27.3764H54.5823V29.0744H57.4832C57.6909 29.0744 57.8466 29.1231 57.9504 29.2205C58.0673 29.3179 58.1257 29.4518 58.1257 29.6222C58.1257 29.7926 58.0673 29.9265 57.9504 30.0239C57.8466 30.1213 57.6909 30.1699 57.4832 30.1699H54.5823V32.1966C54.5823 32.4522 54.5109 32.6531 54.3681 32.7992C54.2383 32.9331 54.0437 33 53.7841 33ZM54.5628 26.2809H57.3274C58.3268 26.2809 59.0926 26.0801 59.6248 25.6784C60.1569 25.2645 60.423 24.6376 60.423 23.7978C60.423 22.97 60.1569 22.3493 59.6248 21.9354C59.1056 21.5094 58.3333 21.2963 57.308 21.2963H54.5628V26.2809Z" fill="#344848"/>
<defs>
<clipPath id="clip0_75_236">
<rect width="36.6" height="39.15" fill="white" transform="translate(37)"/>
</clipPath>
</defs>
</svg>
