<svg width="65" height="61" viewBox="0 0 65 61" fill="none" xmlns="http://www.w3.org/2000/svg">
<ellipse cx="45.5" cy="17.5" rx="17.5" ry="16.5" fill="#25D366"/>
<path fill-rule="evenodd" clip-rule="evenodd" d="M20.5729 0.486963C20.2579 1.0547 20.2919 2.36272 20.6479 3.39577C21.1419 4.8307 22.0279 5.11011 24.4009 4.58023C32.7369 2.71894 35.0749 2.69668 40.4199 4.42661C44.4799 5.74019 47.2079 7.54693 50.0459 10.8031C54.7389 16.1854 54.9419 17.3042 51.2299 17.3042C49.7019 17.3042 47.4699 18.0701 46.2699 19.0052C44.2129 20.6093 44.0019 20.5214 42.5839 17.4689C40.6669 13.3445 36.1069 7.28532 34.9179 7.28532C33.2759 7.28532 33.9629 10.2364 36.1089 12.3983C37.9799 14.2818 41.0069 19.643 41.0069 21.0713C41.0069 21.3674 39.8039 21.7682 38.3339 21.9619C33.7149 22.5697 34.5909 24.7538 39.7179 25.4139C44.0759 25.975 44.7509 25.7356 47.2169 22.76C49.6309 19.8479 50.3689 19.5685 53.9669 20.2097C58.4689 21.0112 58.9009 20.203 56.5889 15.3004C54.4479 10.7596 47.9929 4.27966 43.5659 2.22691C40.7149 0.904417 37.3969 0.501436 31.5659 0.769719C27.1339 0.974549 22.9759 0.761926 22.3259 0.298831C21.6769 -0.164263 20.8879 -0.0796596 20.5729 0.486963ZM10.6529 10.2765C4.61787 16.801 2.57087 22.14 2.53687 31.4419C2.49787 41.8615 3.87687 43.6683 8.01787 38.621C12.3669 33.3199 12.0889 31.3184 7.47187 34.6869L5.00687 36.4848V31.0089C5.00687 24.3063 8.90087 14.9932 13.0929 11.6702C15.7679 9.54959 17.0789 6.17211 15.2279 6.17211C14.7989 6.17211 12.7409 8.01893 10.6529 10.2765ZM23.7249 10.1964C23.3869 10.5726 24.2119 14.1393 25.5589 18.1213C28.5299 26.9067 28.5469 27.3231 25.9409 27.3231C23.6109 27.3231 19.8519 29.2923 18.8259 31.0501C17.9279 32.5863 16.9759 28.1479 16.7129 21.2004C16.5979 18.1369 16.0539 15.7746 15.5049 15.9461C14.1629 16.3658 14.5059 30.3677 15.9599 34.511L17.1149 37.8017L20.2179 34.1047C23.0629 30.7172 23.6849 30.4634 27.6649 31.0712C30.5379 31.5087 32.0069 31.315 32.0069 30.4979C32.0069 28.4786 25.6409 9.51174 24.9629 9.51174C24.6209 9.51174 24.0639 9.8201 23.7249 10.1964ZM32.0069 36.4792C32.0069 37.3319 33.3569 42.1465 35.0069 47.1793C36.6569 52.2122 38.0069 56.8654 38.0069 57.5188C38.0069 58.3025 36.2159 58.4628 32.7569 57.9886C29.8689 57.5934 25.0319 57.0669 22.0069 56.8197C18.9819 56.5715 14.2189 56.0394 11.4229 55.6375C7.64987 55.0942 5.52087 55.3759 3.17287 56.7273C-0.505128 58.8446 -1.21313 61.454 2.25687 60.1026C4.80287 59.1107 6.67587 59.1152 34.7569 60.1816C48.7709 60.7137 55.0069 60.5879 55.0069 59.7731C55.0069 59.0929 52.1539 58.455 48.2609 58.2658L41.5139 57.9363L37.8699 46.8454C34.5939 36.8722 32.0069 32.2991 32.0069 36.4792ZM60.0069 59.6061C60.0069 60.2183 60.4569 60.7193 61.0069 60.7193C61.5569 60.7193 62.0069 60.2183 62.0069 59.6061C62.0069 58.9938 61.5569 58.4929 61.0069 58.4929C60.4569 58.4929 60.0069 58.9938 60.0069 59.6061Z" fill="#344848"/>
<path fill-rule="evenodd" clip-rule="evenodd" d="M45.25 26.9387L40 29.2419L40.022 34.9371C40.048 41.7432 42.521 48.2767 46.926 53.1803C50.988 57.7022 52.945 57.6977 56.967 53.1559C61.578 47.9505 63.197 43.8817 63.759 36.0848L64.255 29.2096L58.59 26.8496C51.816 24.0288 51.883 24.0288 45.25 26.9387ZM57.717 28.5384C61.912 30.3217 62 30.4653 61.978 35.4959C61.95 42.0093 59.214 48.7598 55.002 52.7039L51.72 55.7786L48.769 52.6582C44.403 48.044 42 42.0639 42 35.8188C42 30.5566 42.136 30.2972 45.75 28.6464C50.706 26.3832 52.606 26.3654 57.717 28.5384ZM52 40.5978C52 52.8831 53.213 53.6857 57.455 44.2101C61.01 36.2696 60.849 32.8309 56.851 31.2791C55.119 30.6067 53.319 30.0568 52.851 30.0568C52.383 30.0568 52 34.8002 52 40.5978Z" fill="#344848"/>
</svg>
