<svg width="73" height="57" viewBox="0 0 73 57" fill="none" xmlns="http://www.w3.org/2000/svg">
<path d="M5.4209 44.5386H67.599V2.2517C67.599 1.01327 66.6888 0 65.5763 0H7.44361C6.33112 0 5.4209 1.01327 5.4209 2.2517V44.5386Z" fill="#344848"/>
<path d="M45.5828 47.8629C45.9079 48.8944 45.2065 49.8802 44.3153 49.8802H40.15H32.85H28.6847C27.7935 49.8802 27.0921 48.8944 27.4172 47.8629H0V50.7693C0 53.7737 2.18785 56.2092 4.88671 56.2092H32.85H40.15H68.1133C70.8121 56.2092 73 53.7737 73 50.7693V47.8629H45.5828Z" fill="#344848"/>
<path d="M63.5536 4.50354H9.46631V40.0353H63.5536V4.50354Z" fill="white"/>
<circle cx="35.4999" cy="18.9091" r="10.7841" fill="#FF58F8"/>
<path fill-rule="evenodd" clip-rule="evenodd" d="M22.2524 12.2082C20.7515 13.8609 21.6242 15.3105 26.9044 19.9364L31.3193 23.8053L28.8057 25.2255C26.3688 26.6017 26.1729 26.6061 22.4256 25.3568C19.2725 24.3056 18.3712 24.2396 17.5391 25.0003C16.0095 26.3978 16.288 27.6419 18.6836 30.1141C20.7308 32.2268 21.1392 32.3463 26.1783 32.3177L31.5078 32.2869L43.8323 24.7413C54.7179 18.0768 56.1822 16.9625 56.3714 15.1946C56.6365 12.7254 55.4814 11.0814 53.4821 11.0814C52.6507 11.0814 49.5716 12.5669 46.6397 14.3825C43.7078 16.1981 41.0177 17.6836 40.6619 17.6836C40.3069 17.6836 36.9026 16.4035 33.0973 14.8395C23.3776 10.8445 23.4702 10.8672 22.2524 12.2082ZM32.4232 16.6559L40.8345 20.0296L46.8682 16.5231C52.6754 13.1486 55.6186 12.5728 54.7812 14.976C54.5867 15.535 48.9061 19.3437 42.1582 23.44C30.5252 30.5014 29.6891 30.8865 26.035 30.8616C22.9679 30.8403 21.7781 30.4728 20.2085 29.0599C17.4905 26.6142 18.3805 26.1329 22.79 27.6632C26.4934 28.9491 26.5294 28.9469 29.344 27.2538C32.3545 25.4426 34.2832 23.7481 33.7995 23.338C30.316 20.3817 23.1804 13.8389 23.1804 13.602C23.1804 13.0063 23.9985 13.277 32.4232 16.6559Z" fill="#344848"/>
</svg>
