<svg width="62" height="45" viewBox="0 0 62 45" fill="none" xmlns="http://www.w3.org/2000/svg">
<path d="M34.5002 5.50005H7.50024C5.50024 5.33339 1.60024 6.20005 2.00024 11.0001C2.40024 15.8001 2.16691 31.6667 2.00024 39C2.16691 40 3.00024 42.5 7.50024 43C11.5545 43.4505 36.1669 43.3333 48.0002 43C49.1669 43.3333 51.5002 43 51.5002 39C51.5002 35 51.5002 25.6667 51.5002 21.5" stroke="#344848" stroke-width="3"/>
<rect x="3" y="6" width="52" height="36" rx="7" fill="#F6D4F5"/>
<circle cx="13" cy="16" r="4.5" stroke="#344848" stroke-width="3"/>
<line x1="11.5" y1="34.5" x2="33.5" y2="34.5" stroke="#7A7B7E" stroke-width="3" stroke-linecap="round"/>
<line x1="11.5" y1="27.5" x2="33.5" y2="27.5" stroke="#7A7B7E" stroke-width="3" stroke-linecap="round"/>
<circle cx="48.5" cy="9.5" r="9.5" fill="#25D366"/>
<path d="M50.5 13.5L49.2904 14.387L50.4003 15.9006L51.6319 14.4843L50.5 13.5ZM61.6319 2.98427C62.1755 2.35913 62.1094 1.41169 61.4843 0.868092C60.8591 0.324495 59.9117 0.390596 59.3681 1.01573L61.6319 2.98427ZM43.7904 6.88705L49.2904 14.387L51.7096 12.613L46.2096 5.11295L43.7904 6.88705ZM51.6319 14.4843L61.6319 2.98427L59.3681 1.01573L49.3681 12.5157L51.6319 14.4843Z" fill="white"/>
</svg>
