<svg width="62" height="63" viewBox="0 0 62 63" fill="none" xmlns="http://www.w3.org/2000/svg">
<path fill-rule="evenodd" clip-rule="evenodd" d="M29.9278 1.07832C29.9278 1.63279 30.3778 2.08645 30.9278 2.08645C31.4778 2.08645 31.9278 1.63279 31.9278 1.07832C31.9278 0.523849 31.4778 0.0701904 30.9278 0.0701904C30.3778 0.0701904 29.9278 0.523849 29.9278 1.07832ZM15.1778 4.09162C12.0788 5.99699 10.8588 8.13523 12.8708 8.13523C14.4128 8.13523 20.9278 3.97871 20.9278 2.99478C20.9278 1.52089 18.6548 1.95439 15.1778 4.09162ZM48.4238 7.13113C45.8638 9.98313 47.7398 13.9945 52.0388 14.8615C56.4148 15.7436 59.1038 22.0091 59.1038 31.3222C59.1038 62.5319 17.2008 71.1222 4.63679 42.4883C1.87379 36.1895 1.88079 26.2977 4.65379 20.0584C6.59779 15.6841 6.65679 14.184 4.88379 14.184C4.49379 14.184 3.16679 16.544 1.93579 19.4283C0.0577917 23.8308 -0.231208 25.9751 0.140792 32.786C0.812792 45.1175 5.80579 53.3458 16.1088 59.1002C20.9498 61.803 22.2808 62.0702 30.9278 62.0702C39.5748 62.0702 40.9058 61.803 45.7468 59.1002C51.6868 55.7825 55.8118 51.4979 59.1688 45.1558C61.0528 41.5981 61.4218 39.3268 61.4218 31.3222C61.4218 23.3247 61.0518 21.0443 59.1748 17.5008C57.9388 15.1659 56.9278 11.9681 56.9278 10.3934C56.9278 5.12899 51.9388 3.21556 48.4238 7.13113ZM53.9278 9.58795C53.9278 10.3874 53.4388 11.3451 52.8408 11.7181C51.4288 12.5982 49.5008 10.6545 50.3738 9.23107C51.3538 7.63217 53.9278 7.89026 53.9278 9.58795Z" fill="#344848"/>
<path d="M54.5 33C54.5 44.8341 44.0205 54.5 31 54.5C17.9795 54.5 7.5 44.8341 7.5 33C7.5 21.1659 17.9795 11.5 31 11.5C44.0205 11.5 54.5 21.1659 54.5 33Z" fill="white" stroke="#344848"/>
<path d="M37.4997 17.5C39.0997 16.7 38.1664 14.5 37.4997 13.5C41.8997 13.5 47.3331 18.5 49.4998 21C49.4998 23.1667 49.1998 27.8 47.9998 29C46.4998 30.5 43.4998 29 42.9998 25C42.4998 21 38.9998 23 38.9998 25C38.9998 27 37.4997 28.5 33.4998 29C29.4998 29.5 30.9997 25.5 30.4997 21C29.9997 16.5 35.4997 18.5 37.4997 17.5Z" fill="#1AD6FF"/>
<path d="M12 31.5C10.8 33.9 9.5 34.1667 9 34C10.5 48 16 46 20.5 47.5C25 49 24.5 48.5 27.5 47.5C30.5 46.5 24 42.5 20.5 42C17 41.5 18 36.5 19 32.75C20 29 13.5 28.5 12 31.5Z" fill="#1AD6FF"/>
<path d="M15.394 39C15.01 39 14.728 38.916 14.548 38.748C14.38 38.568 14.296 38.31 14.296 37.974C14.296 37.77 14.35 37.572 14.458 37.38C14.566 37.188 14.722 36.984 14.926 36.768L18.544 32.916C19.096 32.34 19.492 31.818 19.732 31.35C19.972 30.87 20.092 30.39 20.092 29.91C20.092 29.31 19.9 28.854 19.516 28.542C19.144 28.23 18.598 28.074 17.878 28.074C17.47 28.074 17.062 28.134 16.654 28.254C16.246 28.362 15.832 28.554 15.412 28.83C15.196 28.974 14.992 29.034 14.8 29.01C14.62 28.986 14.458 28.908 14.314 28.776C14.182 28.644 14.092 28.482 14.044 28.29C13.996 28.098 14.002 27.906 14.062 27.714C14.134 27.51 14.278 27.336 14.494 27.192C15.01 26.844 15.586 26.58 16.222 26.4C16.87 26.22 17.518 26.13 18.166 26.13C19.078 26.13 19.846 26.268 20.47 26.544C21.094 26.82 21.568 27.222 21.892 27.75C22.216 28.278 22.378 28.92 22.378 29.676C22.378 30.18 22.294 30.672 22.126 31.152C21.97 31.632 21.724 32.118 21.388 32.61C21.064 33.102 20.638 33.624 20.11 34.176L16.726 37.704V37.092H22.018C22.342 37.092 22.588 37.17 22.756 37.326C22.924 37.482 23.008 37.716 23.008 38.028C23.008 38.34 22.924 38.58 22.756 38.748C22.588 38.916 22.342 39 22.018 39H15.394ZM31.227 39.144C30.867 39.144 30.585 39.048 30.381 38.856C30.177 38.652 30.075 38.364 30.075 37.992V36.588H25.629C25.257 36.588 24.957 36.51 24.729 36.354C24.513 36.198 24.405 35.952 24.405 35.616C24.405 35.424 24.453 35.214 24.549 34.986C24.657 34.758 24.843 34.458 25.107 34.086L30.039 26.94C30.207 26.688 30.393 26.496 30.597 26.364C30.801 26.232 31.035 26.166 31.299 26.166C31.611 26.166 31.869 26.262 32.073 26.454C32.277 26.634 32.379 26.922 32.379 27.318V34.68H33.261C33.609 34.68 33.867 34.764 34.035 34.932C34.215 35.088 34.305 35.322 34.305 35.634C34.305 35.946 34.215 36.186 34.035 36.354C33.867 36.51 33.609 36.588 33.261 36.588H32.379V37.992C32.379 38.364 32.277 38.652 32.073 38.856C31.869 39.048 31.587 39.144 31.227 39.144ZM30.075 34.68V29.064H30.597L26.349 35.292V34.68H30.075ZM36.1699 39.522C36.0979 39.75 35.9839 39.912 35.8279 40.008C35.6719 40.116 35.4979 40.17 35.3059 40.17C35.1259 40.17 34.9579 40.122 34.8019 40.026C34.6459 39.93 34.5379 39.792 34.4779 39.612C34.4059 39.444 34.4059 39.24 34.4779 39L38.6359 26.094C38.7079 25.866 38.8219 25.698 38.9779 25.59C39.1459 25.482 39.3199 25.434 39.4999 25.446C39.6799 25.446 39.8479 25.494 40.0039 25.59C40.1599 25.686 40.2679 25.818 40.3279 25.986C40.3999 26.154 40.3999 26.358 40.3279 26.598L36.1699 39.522ZM43.3245 39.144C43.0485 39.144 42.8205 39.078 42.6405 38.946C42.4605 38.814 42.3525 38.64 42.3165 38.424C42.2805 38.196 42.3345 37.944 42.4785 37.668L47.9145 27.444V28.236H42.0825C41.7585 28.236 41.5065 28.152 41.3265 27.984C41.1585 27.816 41.0745 27.582 41.0745 27.282C41.0745 26.97 41.1585 26.73 41.3265 26.562C41.5065 26.394 41.7585 26.31 42.0825 26.31H49.0485C49.3725 26.31 49.6365 26.394 49.8405 26.562C50.0445 26.73 50.1465 26.97 50.1465 27.282C50.1465 27.546 50.1105 27.78 50.0385 27.984C49.9665 28.176 49.8705 28.386 49.7505 28.614L44.6385 38.388C44.5065 38.652 44.3325 38.844 44.1165 38.964C43.9125 39.084 43.6485 39.144 43.3245 39.144Z" fill="#BA0909"/>
</svg>
