<?xml version="1.0" standalone="no"?>
<!DOCTYPE svg PUBLIC "-//W3C//DTD SVG 20010904//EN"
 "http://www.w3.org/TR/2001/REC-SVG-20010904/DTD/svg10.dtd">
<svg version="1.0" xmlns="http://www.w3.org/2000/svg"
 width="106.000000pt" height="106.000000pt" viewBox="0 0 106.000000 106.000000"
 preserveAspectRatio="xMidYMid meet">
<metadata>
Created by potrace 1.14, written by Peter Selinger 2001-2017
</metadata>
<g transform="translate(0.000000,106.000000) scale(0.100000,-0.100000)"
fill="#000000" stroke="none">
<path d="M564 997 l-51 -62 -74 0 c-68 -1 -74 -3 -77 -22 -3 -17 3 -22 25 -25
27 -3 26 -4 -21 -27 -65 -32 -138 -108 -173 -179 -24 -50 -27 -68 -27 -152 0
-83 3 -102 27 -152 34 -68 109 -147 167 -173 41 -18 42 -20 37 -57 -6 -43 9
-50 38 -18 12 13 31 20 56 20 l38 0 -13 -37 c-19 -55 -27 -103 -17 -103 5 0
32 31 60 70 l51 70 64 0 c68 0 99 17 72 39 -8 6 -18 11 -22 10 -34 -6 -31 5 7
30 99 64 160 179 160 305 0 106 -46 204 -130 276 -42 36 -49 48 -48 74 2 17 6
37 11 45 15 24 -15 30 -39 7 -18 -16 -33 -21 -58 -18 l-35 4 19 54 c20 57 24
85 12 83 -5 0 -31 -28 -59 -62z m-9 -195 c47 -73 50 -75 53 -47 2 16 -1 47 -8
68 -6 22 -9 41 -6 45 10 9 87 -18 93 -34 3 -8 13 -14 22 -14 23 0 99 -76 124
-125 101 -197 13 -415 -199 -495 -23 -9 -28 -4 -75 60 -46 63 -69 84 -69 63 0
-5 7 -33 15 -63 8 -30 15 -56 15 -57 0 -2 -17 -3 -38 -3 -25 0 -43 7 -55 20
-20 23 -42 27 -33 5 7 -19 3 -19 -42 4 -50 25 -118 100 -145 159 -31 68 -31
217 0 284 27 59 96 134 148 160 43 23 111 46 135 47 8 1 38 -34 65 -77z"/>
</g>
</svg>
