<svg width="42" height="42" viewBox="0 0 42 42" fill="none" xmlns="http://www.w3.org/2000/svg">
<path d="M41.7133 20.9056C41.7158 18.7008 39.7102 17.0257 37.6836 17.0284L27.3947 17.0161L21.411 2.66738C20.7333 1.40913 20.117 0.0678134 17.8441 0.0696135C16.6858 0.0713674 14.2747 0.0740447 14.2715 3.97509L15.4588 17.0011L6.94295 16.9913L3.95918 11.5574C3.52144 10.745 3.00524 10.4421 2.3688 10.4757C2.02546 10.5172 0.0966301 10.2046 0.0950255 11.8929L1.12248 20.8818L0.0942227 29.8698C0.09342 31.0928 0.961738 31.2791 2.34617 31.3179C3.24679 31.3171 3.38164 30.9577 3.90345 30.0906L6.95342 24.7908L15.4346 24.775L14.2383 37.7912C14.2351 41.6924 16.6462 41.6897 17.8037 41.6888C20.0774 41.6861 20.6953 40.3431 21.3754 39.0839L27.4044 24.7529L37.682 24.7335C39.7102 24.7308 41.7117 23.1097 41.7133 20.9056ZM37.9202 22.6628L25.86 22.6867L19.4878 37.6102C19.0936 38.4331 18.2722 39.0874 17.8086 39.0874C16.4903 39.0892 16.3336 38.2327 16.3619 37.6579L18.4046 22.7008L5.49789 22.7264L2.35179 28.6999C2.35339 27.6986 3.25967 20.8641 3.25967 20.7229C3.25967 20.6293 2.36546 13.923 2.36627 13.092L5.38157 18.8235L18.3917 18.9533L16.3611 4.10488C16.3377 3.64135 16.6349 2.67356 17.8417 2.67181C18.3045 2.67093 19.0775 3.36234 19.4708 4.18436L25.8268 19.0302L37.9186 19.1503C38.7708 19.1494 39.5623 20.1101 39.5615 20.9268C39.5616 21.7445 38.7724 22.662 37.9202 22.6628Z" fill="#00728B"/>
</svg>
